<svg width="12" height="16" viewBox="0 0 12 16" fill="none" xmlns="http://www.w3.org/2000/svg">
<path d="M5.9999 2.12891C5.7518 2.12891 5.55066 2.33005 5.55066 2.57814C5.55066 2.82624 5.7518 3.02738 5.9999 3.02738C7.48639 3.02738 8.69577 4.23655 8.69577 5.72282C8.69577 5.97092 8.89691 6.17205 9.14501 6.17205C9.39311 6.17205 9.59425 5.97092 9.59425 5.72282C9.59425 3.74113 7.98184 2.12891 5.9999 2.12891Z" fill="#FF6B00" stroke="#FF6B00" stroke-width="0.5"/>
<path d="M4.84233 0.453349C2.81267 0.877461 1.16696 2.50742 0.733922 4.54969C0.368272 6.27423 0.818858 8.00559 1.97014 9.29985C2.53291 9.93247 2.85565 10.7675 2.85565 11.5933V12.4918C2.85565 13.0895 3.24699 13.5974 3.78686 13.7733C3.9644 14.8223 4.87486 15.6663 6.00032 15.6663C7.12548 15.6663 8.03618 14.8225 8.21378 13.7733C8.75364 13.5974 9.14499 13.0895 9.14499 12.4917V11.5932C9.14499 10.7659 9.4688 9.94085 10.0567 9.27011C10.9173 8.28837 11.3912 7.02871 11.3912 5.72322C11.3912 2.32203 8.27799 -0.264414 4.84233 0.453349ZM6.00032 14.7679C5.42284 14.7679 4.91651 14.3705 4.72954 13.8365H7.27106C7.08412 14.3705 6.5778 14.7679 6.00032 14.7679ZM8.24651 12.4918C8.24651 12.7395 8.04498 12.941 7.79727 12.941H4.20336C3.95565 12.941 3.75412 12.7395 3.75412 12.4918V12.0425H8.24651V12.4918ZM9.38105 8.67792C8.75451 9.39272 8.36903 10.2547 8.27122 11.144H3.72951C3.63181 10.2542 3.24732 9.38377 2.64151 8.70269C1.682 7.62404 1.30706 6.17824 1.61287 4.73606C1.96984 3.0525 3.34151 1.68486 5.02613 1.33287C7.90198 0.731877 10.4927 2.89158 10.4927 5.72322C10.4927 6.81074 10.0979 7.86007 9.38105 8.67792Z" fill="#FF6B00" stroke="#FF6B00" stroke-width="0.5"/>
</svg>